<?xml version="1.0" encoding="UTF-8" standalone="no"?>
<!DOCTYPE svg PUBLIC "-//W3C//DTD SVG 1.1//EN"
 "http://www.w3.org/Graphics/SVG/1.1/DTD/svg11.dtd">
<!-- Generated by graphviz version 2.43.0 (0)
 -->
<!-- Title: FXGraph Pages: 1 -->
<svg width="1149pt" height="44pt"
 viewBox="0.00 0.00 1149.00 44.00" xmlns="http://www.w3.org/2000/svg" xmlns:xlink="http://www.w3.org/1999/xlink">
<g id="graph0" class="graph" transform="scale(1 1) rotate(0) translate(4 40)">
<title>FXGraph</title>
<polygon fill="white" stroke="transparent" points="-4,4 -4,-40 1145,-40 1145,4 -4,4"/>
<!-- net_0_net_0 -->
<g id="node1" class="node">
<title>net_0_net_0</title>
<polygon fill="none" stroke="black" points="71,-36 0,-36 0,0 71,0 71,-36"/>
<text text-anchor="middle" x="35.5" y="-21" font-family="Times,serif" font-size="10.00">module</text>
<text text-anchor="middle" x="35.5" y="-10" font-family="Times,serif" font-size="10.00">net.0.net.0</text>
</g>
<!-- net_0_net_1 -->
<g id="node2" class="node">
<title>net_0_net_1</title>
<polygon fill="none" stroke="black" points="178,-36 107,-36 107,0 178,0 178,-36"/>
<text text-anchor="middle" x="142.5" y="-21" font-family="Times,serif" font-size="10.00">module</text>
<text text-anchor="middle" x="142.5" y="-10" font-family="Times,serif" font-size="10.00">net.0.net.1</text>
</g>
<!-- net_0_net_0&#45;&gt;net_0_net_1 -->
<g id="edge1" class="edge">
<title>net_0_net_0&#45;&gt;net_0_net_1</title>
<path fill="none" stroke="black" d="M71.17,-18C79.33,-18 88.13,-18 96.66,-18"/>
<polygon fill="black" stroke="black" points="96.86,-21.5 106.86,-18 96.86,-14.5 96.86,-21.5"/>
</g>
<!-- net_0_net_2 -->
<g id="node3" class="node">
<title>net_0_net_2</title>
<polygon fill="none" stroke="black" points="285,-36 214,-36 214,0 285,0 285,-36"/>
<text text-anchor="middle" x="249.5" y="-21" font-family="Times,serif" font-size="10.00">module</text>
<text text-anchor="middle" x="249.5" y="-10" font-family="Times,serif" font-size="10.00">net.0.net.2</text>
</g>
<!-- net_0_net_1&#45;&gt;net_0_net_2 -->
<g id="edge2" class="edge">
<title>net_0_net_1&#45;&gt;net_0_net_2</title>
<path fill="none" stroke="black" d="M178.17,-18C186.33,-18 195.13,-18 203.66,-18"/>
<polygon fill="black" stroke="black" points="203.86,-21.5 213.86,-18 203.86,-14.5 203.86,-21.5"/>
</g>
<!-- net_0_net_3 -->
<g id="node4" class="node">
<title>net_0_net_3</title>
<polygon fill="none" stroke="black" points="392,-36 321,-36 321,0 392,0 392,-36"/>
<text text-anchor="middle" x="356.5" y="-21" font-family="Times,serif" font-size="10.00">module</text>
<text text-anchor="middle" x="356.5" y="-10" font-family="Times,serif" font-size="10.00">net.0.net.3</text>
</g>
<!-- net_0_net_2&#45;&gt;net_0_net_3 -->
<g id="edge3" class="edge">
<title>net_0_net_2&#45;&gt;net_0_net_3</title>
<path fill="none" stroke="black" d="M285.17,-18C293.33,-18 302.13,-18 310.66,-18"/>
<polygon fill="black" stroke="black" points="310.86,-21.5 320.86,-18 310.86,-14.5 310.86,-21.5"/>
</g>
<!-- net_1_net_0 -->
<g id="node5" class="node">
<title>net_1_net_0</title>
<polygon fill="none" stroke="black" points="499,-36 428,-36 428,0 499,0 499,-36"/>
<text text-anchor="middle" x="463.5" y="-21" font-family="Times,serif" font-size="10.00">module</text>
<text text-anchor="middle" x="463.5" y="-10" font-family="Times,serif" font-size="10.00">net.1.net.0</text>
</g>
<!-- net_0_net_3&#45;&gt;net_1_net_0 -->
<g id="edge4" class="edge">
<title>net_0_net_3&#45;&gt;net_1_net_0</title>
<path fill="none" stroke="black" d="M392.17,-18C400.33,-18 409.13,-18 417.66,-18"/>
<polygon fill="black" stroke="black" points="417.86,-21.5 427.86,-18 417.86,-14.5 417.86,-21.5"/>
</g>
<!-- net_1_net_1 -->
<g id="node6" class="node">
<title>net_1_net_1</title>
<polygon fill="none" stroke="black" points="606,-36 535,-36 535,0 606,0 606,-36"/>
<text text-anchor="middle" x="570.5" y="-21" font-family="Times,serif" font-size="10.00">module</text>
<text text-anchor="middle" x="570.5" y="-10" font-family="Times,serif" font-size="10.00">net.1.net.1</text>
</g>
<!-- net_1_net_0&#45;&gt;net_1_net_1 -->
<g id="edge5" class="edge">
<title>net_1_net_0&#45;&gt;net_1_net_1</title>
<path fill="none" stroke="black" d="M499.17,-18C507.33,-18 516.13,-18 524.66,-18"/>
<polygon fill="black" stroke="black" points="524.86,-21.5 534.86,-18 524.86,-14.5 524.86,-21.5"/>
</g>
<!-- net_1_net_2 -->
<g id="node7" class="node">
<title>net_1_net_2</title>
<polygon fill="none" stroke="black" points="713,-36 642,-36 642,0 713,0 713,-36"/>
<text text-anchor="middle" x="677.5" y="-21" font-family="Times,serif" font-size="10.00">module</text>
<text text-anchor="middle" x="677.5" y="-10" font-family="Times,serif" font-size="10.00">net.1.net.2</text>
</g>
<!-- net_1_net_1&#45;&gt;net_1_net_2 -->
<g id="edge6" class="edge">
<title>net_1_net_1&#45;&gt;net_1_net_2</title>
<path fill="none" stroke="black" d="M606.17,-18C614.33,-18 623.13,-18 631.66,-18"/>
<polygon fill="black" stroke="black" points="631.86,-21.5 641.86,-18 631.86,-14.5 631.86,-21.5"/>
</g>
<!-- net_1_net_3 -->
<g id="node8" class="node">
<title>net_1_net_3</title>
<polygon fill="none" stroke="black" points="820,-36 749,-36 749,0 820,0 820,-36"/>
<text text-anchor="middle" x="784.5" y="-21" font-family="Times,serif" font-size="10.00">module</text>
<text text-anchor="middle" x="784.5" y="-10" font-family="Times,serif" font-size="10.00">net.1.net.3</text>
</g>
<!-- net_1_net_2&#45;&gt;net_1_net_3 -->
<g id="edge7" class="edge">
<title>net_1_net_2&#45;&gt;net_1_net_3</title>
<path fill="none" stroke="black" d="M713.17,-18C721.33,-18 730.13,-18 738.66,-18"/>
<polygon fill="black" stroke="black" points="738.86,-21.5 748.86,-18 738.86,-14.5 738.86,-21.5"/>
</g>
<!-- net_2_net_0 -->
<g id="node9" class="node">
<title>net_2_net_0</title>
<polygon fill="none" stroke="black" points="927,-36 856,-36 856,0 927,0 927,-36"/>
<text text-anchor="middle" x="891.5" y="-21" font-family="Times,serif" font-size="10.00">module</text>
<text text-anchor="middle" x="891.5" y="-10" font-family="Times,serif" font-size="10.00">net.2.net.0</text>
</g>
<!-- net_1_net_3&#45;&gt;net_2_net_0 -->
<g id="edge8" class="edge">
<title>net_1_net_3&#45;&gt;net_2_net_0</title>
<path fill="none" stroke="black" d="M820.17,-18C828.33,-18 837.13,-18 845.66,-18"/>
<polygon fill="black" stroke="black" points="845.86,-21.5 855.86,-18 845.86,-14.5 845.86,-21.5"/>
</g>
<!-- net_2_net_1 -->
<g id="node10" class="node">
<title>net_2_net_1</title>
<polygon fill="none" stroke="black" points="1034,-36 963,-36 963,0 1034,0 1034,-36"/>
<text text-anchor="middle" x="998.5" y="-21" font-family="Times,serif" font-size="10.00">module</text>
<text text-anchor="middle" x="998.5" y="-10" font-family="Times,serif" font-size="10.00">net.2.net.1</text>
</g>
<!-- net_2_net_0&#45;&gt;net_2_net_1 -->
<g id="edge9" class="edge">
<title>net_2_net_0&#45;&gt;net_2_net_1</title>
<path fill="none" stroke="black" d="M927.17,-18C935.33,-18 944.13,-18 952.66,-18"/>
<polygon fill="black" stroke="black" points="952.86,-21.5 962.86,-18 952.86,-14.5 952.86,-21.5"/>
</g>
<!-- net_2_net_2 -->
<g id="node11" class="node">
<title>net_2_net_2</title>
<polygon fill="none" stroke="black" points="1141,-36 1070,-36 1070,0 1141,0 1141,-36"/>
<text text-anchor="middle" x="1105.5" y="-21" font-family="Times,serif" font-size="10.00">module</text>
<text text-anchor="middle" x="1105.5" y="-10" font-family="Times,serif" font-size="10.00">net.2.net.2</text>
</g>
<!-- net_2_net_1&#45;&gt;net_2_net_2 -->
<g id="edge10" class="edge">
<title>net_2_net_1&#45;&gt;net_2_net_2</title>
<path fill="none" stroke="black" d="M1034.17,-18C1042.33,-18 1051.13,-18 1059.66,-18"/>
<polygon fill="black" stroke="black" points="1059.86,-21.5 1069.86,-18 1059.86,-14.5 1059.86,-21.5"/>
</g>
</g>
</svg>
