<?xml version="1.0" encoding="UTF-8" standalone="no"?>
<!DOCTYPE svg PUBLIC "-//W3C//DTD SVG 1.1//EN"
 "http://www.w3.org/Graphics/SVG/1.1/DTD/svg11.dtd">
<!-- Generated by graphviz version 2.43.0 (0)
 -->
<!-- Title: FXGraph Pages: 1 -->
<svg width="2007pt" height="72pt"
 viewBox="0.00 0.00 2007.00 72.00" xmlns="http://www.w3.org/2000/svg" xmlns:xlink="http://www.w3.org/1999/xlink">
<g id="graph0" class="graph" transform="scale(1 1) rotate(0) translate(4 68)">
<title>FXGraph</title>
<polygon fill="white" stroke="transparent" points="-4,4 -4,-68 2003,-68 2003,4 -4,4"/>
<!-- net_0_net_0 -->
<g id="node1" class="node">
<title>net_0_net_0</title>
<polygon fill="none" stroke="black" points="71,-41 0,-41 0,-5 71,-5 71,-41"/>
<text text-anchor="middle" x="35.5" y="-26" font-family="Times,serif" font-size="10.00">module</text>
<text text-anchor="middle" x="35.5" y="-15" font-family="Times,serif" font-size="10.00">net.0.net.0</text>
</g>
<!-- net_0_net_1 -->
<g id="node2" class="node">
<title>net_0_net_1</title>
<polygon fill="none" stroke="black" points="178,-41 107,-41 107,-5 178,-5 178,-41"/>
<text text-anchor="middle" x="142.5" y="-26" font-family="Times,serif" font-size="10.00">module</text>
<text text-anchor="middle" x="142.5" y="-15" font-family="Times,serif" font-size="10.00">net.0.net.1</text>
</g>
<!-- net_0_net_0&#45;&gt;net_0_net_1 -->
<g id="edge1" class="edge">
<title>net_0_net_0&#45;&gt;net_0_net_1</title>
<path fill="none" stroke="black" d="M71.17,-23C79.33,-23 88.13,-23 96.66,-23"/>
<polygon fill="black" stroke="black" points="96.86,-26.5 106.86,-23 96.86,-19.5 96.86,-26.5"/>
</g>
<!-- net_0_net_2 -->
<g id="node3" class="node">
<title>net_0_net_2</title>
<polygon fill="none" stroke="black" points="285,-41 214,-41 214,-5 285,-5 285,-41"/>
<text text-anchor="middle" x="249.5" y="-26" font-family="Times,serif" font-size="10.00">module</text>
<text text-anchor="middle" x="249.5" y="-15" font-family="Times,serif" font-size="10.00">net.0.net.2</text>
</g>
<!-- net_0_net_1&#45;&gt;net_0_net_2 -->
<g id="edge2" class="edge">
<title>net_0_net_1&#45;&gt;net_0_net_2</title>
<path fill="none" stroke="black" d="M178.17,-23C186.33,-23 195.13,-23 203.66,-23"/>
<polygon fill="black" stroke="black" points="203.86,-26.5 213.86,-23 203.86,-19.5 203.86,-26.5"/>
</g>
<!-- net_0_net_3 -->
<g id="node4" class="node">
<title>net_0_net_3</title>
<polygon fill="none" stroke="black" points="392,-41 321,-41 321,-5 392,-5 392,-41"/>
<text text-anchor="middle" x="356.5" y="-26" font-family="Times,serif" font-size="10.00">module</text>
<text text-anchor="middle" x="356.5" y="-15" font-family="Times,serif" font-size="10.00">net.0.net.3</text>
</g>
<!-- net_0_net_2&#45;&gt;net_0_net_3 -->
<g id="edge3" class="edge">
<title>net_0_net_2&#45;&gt;net_0_net_3</title>
<path fill="none" stroke="black" d="M285.17,-23C293.33,-23 302.13,-23 310.66,-23"/>
<polygon fill="black" stroke="black" points="310.86,-26.5 320.86,-23 310.86,-19.5 310.86,-26.5"/>
</g>
<!-- net_1_block_net_0 -->
<g id="node5" class="node">
<title>net_1_block_net_0</title>
<polygon fill="none" stroke="black" points="529,-64 428,-64 428,-28 529,-28 529,-64"/>
<text text-anchor="middle" x="478.5" y="-49" font-family="Times,serif" font-size="10.00">module</text>
<text text-anchor="middle" x="478.5" y="-38" font-family="Times,serif" font-size="10.00">net.1.block.net.0</text>
</g>
<!-- net_0_net_3&#45;&gt;net_1_block_net_0 -->
<g id="edge4" class="edge">
<title>net_0_net_3&#45;&gt;net_1_block_net_0</title>
<path fill="none" stroke="black" d="M392.21,-29.65C400.26,-31.19 409.05,-32.88 417.83,-34.56"/>
<polygon fill="black" stroke="black" points="417.21,-38.01 427.7,-36.45 418.53,-31.13 417.21,-38.01"/>
</g>
<!-- add -->
<g id="node9" class="node">
<title>add</title>
<polygon fill="none" stroke="black" points="1035,-41 976,-41 976,-5 1035,-5 1035,-41"/>
<text text-anchor="middle" x="1005.5" y="-26" font-family="Times,serif" font-size="10.00">function</text>
<text text-anchor="middle" x="1005.5" y="-15" font-family="Times,serif" font-size="10.00">add</text>
</g>
<!-- net_0_net_3&#45;&gt;add -->
<g id="edge9" class="edge">
<title>net_0_net_3&#45;&gt;add</title>
<path fill="none" stroke="black" d="M392.33,-17.9C441.66,-11.12 534.76,0 614.5,0 614.5,0 614.5,0 753.5,0 828.92,0 916.56,-10.43 965.78,-17.24"/>
<polygon fill="black" stroke="black" points="965.58,-20.74 975.97,-18.67 966.56,-13.81 965.58,-20.74"/>
</g>
<!-- net_1_block_net_1 -->
<g id="node6" class="node">
<title>net_1_block_net_1</title>
<polygon fill="none" stroke="black" points="666,-64 565,-64 565,-28 666,-28 666,-64"/>
<text text-anchor="middle" x="615.5" y="-49" font-family="Times,serif" font-size="10.00">module</text>
<text text-anchor="middle" x="615.5" y="-38" font-family="Times,serif" font-size="10.00">net.1.block.net.1</text>
</g>
<!-- net_1_block_net_0&#45;&gt;net_1_block_net_1 -->
<g id="edge5" class="edge">
<title>net_1_block_net_0&#45;&gt;net_1_block_net_1</title>
<path fill="none" stroke="black" d="M529,-46C537.24,-46 545.87,-46 554.34,-46"/>
<polygon fill="black" stroke="black" points="554.55,-49.5 564.55,-46 554.55,-42.5 554.55,-49.5"/>
</g>
<!-- net_1_block_net_2 -->
<g id="node7" class="node">
<title>net_1_block_net_2</title>
<polygon fill="none" stroke="black" points="803,-64 702,-64 702,-28 803,-28 803,-64"/>
<text text-anchor="middle" x="752.5" y="-49" font-family="Times,serif" font-size="10.00">module</text>
<text text-anchor="middle" x="752.5" y="-38" font-family="Times,serif" font-size="10.00">net.1.block.net.2</text>
</g>
<!-- net_1_block_net_1&#45;&gt;net_1_block_net_2 -->
<g id="edge6" class="edge">
<title>net_1_block_net_1&#45;&gt;net_1_block_net_2</title>
<path fill="none" stroke="black" d="M666,-46C674.24,-46 682.87,-46 691.34,-46"/>
<polygon fill="black" stroke="black" points="691.55,-49.5 701.55,-46 691.55,-42.5 691.55,-49.5"/>
</g>
<!-- net_1_block_net_3 -->
<g id="node8" class="node">
<title>net_1_block_net_3</title>
<polygon fill="none" stroke="black" points="940,-64 839,-64 839,-28 940,-28 940,-64"/>
<text text-anchor="middle" x="889.5" y="-49" font-family="Times,serif" font-size="10.00">module</text>
<text text-anchor="middle" x="889.5" y="-38" font-family="Times,serif" font-size="10.00">net.1.block.net.3</text>
</g>
<!-- net_1_block_net_2&#45;&gt;net_1_block_net_3 -->
<g id="edge7" class="edge">
<title>net_1_block_net_2&#45;&gt;net_1_block_net_3</title>
<path fill="none" stroke="black" d="M803,-46C811.24,-46 819.87,-46 828.34,-46"/>
<polygon fill="black" stroke="black" points="828.55,-49.5 838.55,-46 828.55,-42.5 828.55,-49.5"/>
</g>
<!-- net_1_block_net_3&#45;&gt;add -->
<g id="edge8" class="edge">
<title>net_1_block_net_3&#45;&gt;add</title>
<path fill="none" stroke="black" d="M940.17,-35.98C948.87,-34.22 957.81,-32.42 966.14,-30.74"/>
<polygon fill="black" stroke="black" points="966.85,-34.17 975.96,-28.76 965.46,-27.31 966.85,-34.17"/>
</g>
<!-- net_2_block_net_0 -->
<g id="node10" class="node">
<title>net_2_block_net_0</title>
<polygon fill="none" stroke="black" points="1172,-64 1071,-64 1071,-28 1172,-28 1172,-64"/>
<text text-anchor="middle" x="1121.5" y="-49" font-family="Times,serif" font-size="10.00">module</text>
<text text-anchor="middle" x="1121.5" y="-38" font-family="Times,serif" font-size="10.00">net.2.block.net.0</text>
</g>
<!-- add&#45;&gt;net_2_block_net_0 -->
<g id="edge10" class="edge">
<title>add&#45;&gt;net_2_block_net_0</title>
<path fill="none" stroke="black" d="M1035.27,-28.8C1043.13,-30.39 1051.94,-32.17 1060.85,-33.97"/>
<polygon fill="black" stroke="black" points="1060.4,-37.44 1070.89,-35.99 1061.78,-30.58 1060.4,-37.44"/>
</g>
<!-- add_1 -->
<g id="node14" class="node">
<title>add_1</title>
<polygon fill="none" stroke="black" points="1678,-41 1619,-41 1619,-5 1678,-5 1678,-41"/>
<text text-anchor="middle" x="1648.5" y="-26" font-family="Times,serif" font-size="10.00">function</text>
<text text-anchor="middle" x="1648.5" y="-15" font-family="Times,serif" font-size="10.00">add</text>
</g>
<!-- add&#45;&gt;add_1 -->
<g id="edge15" class="edge">
<title>add&#45;&gt;add_1</title>
<path fill="none" stroke="black" d="M1035.03,-18.67C1081.52,-12.01 1176.55,0 1257.5,0 1257.5,0 1257.5,0 1396.5,0 1471.92,0 1559.56,-10.43 1608.78,-17.24"/>
<polygon fill="black" stroke="black" points="1608.58,-20.74 1618.97,-18.67 1609.56,-13.81 1608.58,-20.74"/>
</g>
<!-- net_2_block_net_1 -->
<g id="node11" class="node">
<title>net_2_block_net_1</title>
<polygon fill="none" stroke="black" points="1309,-64 1208,-64 1208,-28 1309,-28 1309,-64"/>
<text text-anchor="middle" x="1258.5" y="-49" font-family="Times,serif" font-size="10.00">module</text>
<text text-anchor="middle" x="1258.5" y="-38" font-family="Times,serif" font-size="10.00">net.2.block.net.1</text>
</g>
<!-- net_2_block_net_0&#45;&gt;net_2_block_net_1 -->
<g id="edge11" class="edge">
<title>net_2_block_net_0&#45;&gt;net_2_block_net_1</title>
<path fill="none" stroke="black" d="M1172,-46C1180.24,-46 1188.87,-46 1197.34,-46"/>
<polygon fill="black" stroke="black" points="1197.55,-49.5 1207.55,-46 1197.55,-42.5 1197.55,-49.5"/>
</g>
<!-- net_2_block_net_2 -->
<g id="node12" class="node">
<title>net_2_block_net_2</title>
<polygon fill="none" stroke="black" points="1446,-64 1345,-64 1345,-28 1446,-28 1446,-64"/>
<text text-anchor="middle" x="1395.5" y="-49" font-family="Times,serif" font-size="10.00">module</text>
<text text-anchor="middle" x="1395.5" y="-38" font-family="Times,serif" font-size="10.00">net.2.block.net.2</text>
</g>
<!-- net_2_block_net_1&#45;&gt;net_2_block_net_2 -->
<g id="edge12" class="edge">
<title>net_2_block_net_1&#45;&gt;net_2_block_net_2</title>
<path fill="none" stroke="black" d="M1309,-46C1317.24,-46 1325.87,-46 1334.34,-46"/>
<polygon fill="black" stroke="black" points="1334.55,-49.5 1344.55,-46 1334.55,-42.5 1334.55,-49.5"/>
</g>
<!-- net_2_block_net_3 -->
<g id="node13" class="node">
<title>net_2_block_net_3</title>
<polygon fill="none" stroke="black" points="1583,-64 1482,-64 1482,-28 1583,-28 1583,-64"/>
<text text-anchor="middle" x="1532.5" y="-49" font-family="Times,serif" font-size="10.00">module</text>
<text text-anchor="middle" x="1532.5" y="-38" font-family="Times,serif" font-size="10.00">net.2.block.net.3</text>
</g>
<!-- net_2_block_net_2&#45;&gt;net_2_block_net_3 -->
<g id="edge13" class="edge">
<title>net_2_block_net_2&#45;&gt;net_2_block_net_3</title>
<path fill="none" stroke="black" d="M1446,-46C1454.24,-46 1462.87,-46 1471.34,-46"/>
<polygon fill="black" stroke="black" points="1471.55,-49.5 1481.55,-46 1471.55,-42.5 1471.55,-49.5"/>
</g>
<!-- net_2_block_net_3&#45;&gt;add_1 -->
<g id="edge14" class="edge">
<title>net_2_block_net_3&#45;&gt;add_1</title>
<path fill="none" stroke="black" d="M1583.17,-35.98C1591.87,-34.22 1600.81,-32.42 1609.14,-30.74"/>
<polygon fill="black" stroke="black" points="1609.85,-34.17 1618.96,-28.76 1608.46,-27.31 1609.85,-34.17"/>
</g>
<!-- net_3_net_0 -->
<g id="node15" class="node">
<title>net_3_net_0</title>
<polygon fill="none" stroke="black" points="1785,-41 1714,-41 1714,-5 1785,-5 1785,-41"/>
<text text-anchor="middle" x="1749.5" y="-26" font-family="Times,serif" font-size="10.00">module</text>
<text text-anchor="middle" x="1749.5" y="-15" font-family="Times,serif" font-size="10.00">net.3.net.0</text>
</g>
<!-- add_1&#45;&gt;net_3_net_0 -->
<g id="edge16" class="edge">
<title>add_1&#45;&gt;net_3_net_0</title>
<path fill="none" stroke="black" d="M1678.13,-23C1686.18,-23 1695.12,-23 1703.87,-23"/>
<polygon fill="black" stroke="black" points="1703.97,-26.5 1713.97,-23 1703.97,-19.5 1703.97,-26.5"/>
</g>
<!-- net_3_net_1 -->
<g id="node16" class="node">
<title>net_3_net_1</title>
<polygon fill="none" stroke="black" points="1892,-41 1821,-41 1821,-5 1892,-5 1892,-41"/>
<text text-anchor="middle" x="1856.5" y="-26" font-family="Times,serif" font-size="10.00">module</text>
<text text-anchor="middle" x="1856.5" y="-15" font-family="Times,serif" font-size="10.00">net.3.net.1</text>
</g>
<!-- net_3_net_0&#45;&gt;net_3_net_1 -->
<g id="edge17" class="edge">
<title>net_3_net_0&#45;&gt;net_3_net_1</title>
<path fill="none" stroke="black" d="M1785.17,-23C1793.33,-23 1802.13,-23 1810.66,-23"/>
<polygon fill="black" stroke="black" points="1810.86,-26.5 1820.86,-23 1810.86,-19.5 1810.86,-26.5"/>
</g>
<!-- net_3_net_2 -->
<g id="node17" class="node">
<title>net_3_net_2</title>
<polygon fill="none" stroke="black" points="1999,-41 1928,-41 1928,-5 1999,-5 1999,-41"/>
<text text-anchor="middle" x="1963.5" y="-26" font-family="Times,serif" font-size="10.00">module</text>
<text text-anchor="middle" x="1963.5" y="-15" font-family="Times,serif" font-size="10.00">net.3.net.2</text>
</g>
<!-- net_3_net_1&#45;&gt;net_3_net_2 -->
<g id="edge18" class="edge">
<title>net_3_net_1&#45;&gt;net_3_net_2</title>
<path fill="none" stroke="black" d="M1892.17,-23C1900.33,-23 1909.13,-23 1917.66,-23"/>
<polygon fill="black" stroke="black" points="1917.86,-26.5 1927.86,-23 1917.86,-19.5 1917.86,-26.5"/>
</g>
</g>
</svg>
